<?xml version="1.0" encoding="UTF-8"?>
<svg width="354px" height="127px" viewBox="0 0 354 127" version="1.1" xmlns="http://www.w3.org/2000/svg" xmlns:xlink="http://www.w3.org/1999/xlink">
    <title>logo_mobile</title>
    <g id="logo_mobile" stroke="none" stroke-width="1" fill="none" fill-rule="evenodd">
        <g id="Group" transform="translate(12.520000, 19.970000)" fill-rule="nonzero">
            <path d="M75.35,53.13 C91.41,53.13 100.43,41.8 100.43,28.71 L100.43,27.72 C100.43,14.63 91.52,3.19 75.35,3.19 L27.72,3.19 C11.55,3.19 2.64,14.63 2.64,27.72 L2.64,28.6 C2.64,41.69 11.55,53.13 27.72,53.13 L75.35,53.13 Z M68.97,35.53 L34.1,35.53 C28.16,35.53 25.41,32.78 25.41,28.82 L25.41,27.61 C25.41,23.65 28.16,20.79 34.1,20.79 L68.97,20.79 C74.8,20.79 77.66,23.65 77.66,27.61 L77.66,28.82 C77.66,32.78 74.8,35.53 68.97,35.53 Z M21.23,106.92 C33.77,106.59 44.77,98.67 44.77,81.84 L44.77,78.1 L62.37,78.1 L62.37,104.94 L84.7,104.94 L84.7,78.1 L93.72,78.1 C100.32,78.1 102.96,73.7 102.96,69.19 C102.96,64.79 100.43,60.17 93.72,60.17 L9.24,60.17 C2.53,60.17 0,64.79 0,69.19 C0,73.7 2.64,78.1 9.24,78.1 L23.32,78.1 L23.32,81.84 C23.32,87.45 20.35,91.19 16.72,91.41 C12.32,91.63 9.46,94.27 9.24,98.34 C8.91,104.72 16.06,107.03 21.23,106.92 Z M143.55,62.37 C159.06,62.37 172.59,55.33 172.59,39.38 L172.59,33 C172.59,30.36 171.82,27.94 170.5,25.74 L170.61,25.74 C176.11,25.74 178.53,22 178.53,18.04 C178.53,14.08 176,9.9 170.5,9.9 L154.66,9.9 C154.44,3.74 150.04,0 143.55,0 C137.06,0 132.66,3.63 132.55,9.9 L116.6,9.9 C111.21,9.9 108.46,14.08 108.46,18.04 C108.46,22 111.21,25.74 116.6,25.74 C115.28,27.94 114.51,30.36 114.51,33 L114.51,39.38 C114.51,55.33 128.04,62.37 143.55,62.37 Z M207.02,62.81 L207.02,40.81 L210.43,40.81 C217.03,40.81 219.12,35.86 219.12,31.35 C219.12,26.95 217.14,21.89 210.43,21.89 L207.02,21.89 L207.02,11.99 C207.02,4.95 201.85,1.1 196.13,1.1 C190.3,1.1 185.24,4.84 185.24,11.99 L185.24,62.81 L207.02,62.81 Z M143.55,46.75 C139.04,46.75 134.53,44 134.53,38.72 L134.53,33 C134.53,27.72 139.04,24.97 143.55,24.97 C148.06,24.97 152.57,27.72 152.57,33 L152.57,38.72 C152.57,44 148.06,46.75 143.55,46.75 Z M208.23,104.39 L208.23,83.6 C208.23,70.4 205.7,66.66 191.95,66.66 L126.17,66.66 C120.01,66.66 116.6,70.18 116.6,75.35 C116.6,80.52 120.01,84.04 126.17,84.04 L183.59,84.04 C185.35,84.04 186.23,85.03 186.23,86.68 L186.23,104.39 L208.23,104.39 Z" id="유학" fill="#000000"></path>
            <path d="M243.905,23.98 C250.065,23.98 255.345,21.12 255.345,13.86 C255.345,6.6 250.065,3.74 243.905,3.74 C237.745,3.74 232.465,6.6 232.465,13.86 C232.465,21.12 237.745,23.98 243.905,23.98 Z M255.235,96.69 L255.235,39.71 C255.235,32.12 250.065,28.71 243.905,28.71 C237.745,28.71 232.575,32.12 232.575,39.71 L232.575,96.69 L255.235,96.69 Z M289.115,96.69 L289.115,56.76 C289.115,49.28 294.175,46.75 297.915,46.75 C301.655,46.75 306.605,49.28 306.605,56.76 L306.605,96.69 L329.265,96.69 L329.265,58.08 C329.265,34.87 318.155,27.94 304.185,27.94 C298.355,27.94 292.415,30.03 288.125,33.99 C286.255,30.03 282.185,27.94 277.895,27.94 C272.065,27.94 266.785,31.68 266.785,38.94 L266.785,96.69 L289.115,96.69 Z" id="in" fill="#00B0F0"></path>
        </g>
    </g>
</svg>