<?xml version="1.0" encoding="UTF-8"?>
<svg width="354px" height="200px" viewBox="0 0 354 200" version="1.1" xmlns="http://www.w3.org/2000/svg" xmlns:xlink="http://www.w3.org/1999/xlink">
    <title>logo</title>
    <g id="logo" stroke="none" stroke-width="1" fill="none" fill-rule="evenodd">
        <g id="Group" transform="translate(12.520000, 76.970000)" fill-rule="nonzero">
            <path d="M75.35,53.13 C91.41,53.13 100.43,41.8 100.43,28.71 L100.43,27.72 C100.43,14.63 91.52,3.19 75.35,3.19 L27.72,3.19 C11.55,3.19 2.64,14.63 2.64,27.72 L2.64,28.6 C2.64,41.69 11.55,53.13 27.72,53.13 L75.35,53.13 Z M68.97,35.53 L34.1,35.53 C28.16,35.53 25.41,32.78 25.41,28.82 L25.41,27.61 C25.41,23.65 28.16,20.79 34.1,20.79 L68.97,20.79 C74.8,20.79 77.66,23.65 77.66,27.61 L77.66,28.82 C77.66,32.78 74.8,35.53 68.97,35.53 Z M21.23,106.92 C33.77,106.59 44.77,98.67 44.77,81.84 L44.77,78.1 L62.37,78.1 L62.37,104.94 L84.7,104.94 L84.7,78.1 L93.72,78.1 C100.32,78.1 102.96,73.7 102.96,69.19 C102.96,64.79 100.43,60.17 93.72,60.17 L9.24,60.17 C2.53,60.17 0,64.79 0,69.19 C0,73.7 2.64,78.1 9.24,78.1 L23.32,78.1 L23.32,81.84 C23.32,87.45 20.35,91.19 16.72,91.41 C12.32,91.63 9.46,94.27 9.24,98.34 C8.91,104.72 16.06,107.03 21.23,106.92 Z M143.55,62.37 C159.06,62.37 172.59,55.33 172.59,39.38 L172.59,33 C172.59,30.36 171.82,27.94 170.5,25.74 L170.61,25.74 C176.11,25.74 178.53,22 178.53,18.04 C178.53,14.08 176,9.9 170.5,9.9 L154.66,9.9 C154.44,3.74 150.04,0 143.55,0 C137.06,0 132.66,3.63 132.55,9.9 L116.6,9.9 C111.21,9.9 108.46,14.08 108.46,18.04 C108.46,22 111.21,25.74 116.6,25.74 C115.28,27.94 114.51,30.36 114.51,33 L114.51,39.38 C114.51,55.33 128.04,62.37 143.55,62.37 Z M207.02,62.81 L207.02,40.81 L210.43,40.81 C217.03,40.81 219.12,35.86 219.12,31.35 C219.12,26.95 217.14,21.89 210.43,21.89 L207.02,21.89 L207.02,11.99 C207.02,4.95 201.85,1.1 196.13,1.1 C190.3,1.1 185.24,4.84 185.24,11.99 L185.24,62.81 L207.02,62.81 Z M143.55,46.75 C139.04,46.75 134.53,44 134.53,38.72 L134.53,33 C134.53,27.72 139.04,24.97 143.55,24.97 C148.06,24.97 152.57,27.72 152.57,33 L152.57,38.72 C152.57,44 148.06,46.75 143.55,46.75 Z M208.23,104.39 L208.23,83.6 C208.23,70.4 205.7,66.66 191.95,66.66 L126.17,66.66 C120.01,66.66 116.6,70.18 116.6,75.35 C116.6,80.52 120.01,84.04 126.17,84.04 L183.59,84.04 C185.35,84.04 186.23,85.03 186.23,86.68 L186.23,104.39 L208.23,104.39 Z" id="유학" fill="#000000"></path>
            <path d="M243.905,23.98 C250.065,23.98 255.345,21.12 255.345,13.86 C255.345,6.6 250.065,3.74 243.905,3.74 C237.745,3.74 232.465,6.6 232.465,13.86 C232.465,21.12 237.745,23.98 243.905,23.98 Z M255.235,96.69 L255.235,39.71 C255.235,32.12 250.065,28.71 243.905,28.71 C237.745,28.71 232.575,32.12 232.575,39.71 L232.575,96.69 L255.235,96.69 Z M289.115,96.69 L289.115,56.76 C289.115,49.28 294.175,46.75 297.915,46.75 C301.655,46.75 306.605,49.28 306.605,56.76 L306.605,96.69 L329.265,96.69 L329.265,58.08 C329.265,34.87 318.155,27.94 304.185,27.94 C298.355,27.94 292.415,30.03 288.125,33.99 C286.255,30.03 282.185,27.94 277.895,27.94 C272.065,27.94 266.785,31.68 266.785,38.94 L266.785,96.69 L289.115,96.69 Z" id="in" fill="#00B0F0"></path>
        </g>
        <path d="M16.68,44.945 C17.8933333,44.945 19.165,44.8166667 20.495,44.56 C21.825,44.3033333 23.0325,43.9008333 24.1175,43.3525 C25.2025,42.8041667 26.1008333,42.0866667 26.8125,41.2 C27.5241667,40.3133333 27.88,39.24 27.88,37.98 C27.88,36.72 27.5241667,35.6466667 26.8125,34.76 C26.1008333,33.8733333 25.2025,33.1558333 24.1175,32.6075 C23.0325,32.0591667 21.825,31.6625 20.495,31.4175 C19.165,31.1725 17.8933333,31.05 16.68,31.05 C15.49,31.05 14.2358333,31.1725 12.9175,31.4175 C11.5991667,31.6625 10.3858333,32.0591667 9.2775,32.6075 C8.16916667,33.1558333 7.25916667,33.8733333 6.5475,34.76 C5.83583333,35.6466667 5.48,36.72 5.48,37.98 C5.48,39.24 5.83583333,40.3133333 6.5475,41.2 C7.25916667,42.0866667 8.16916667,42.8041667 9.2775,43.3525 C10.3858333,43.9008333 11.5991667,44.3033333 12.9175,44.56 C14.2358333,44.8166667 15.49,44.945 16.68,44.945 Z M16.68,42.74 C15.8633333,42.74 14.9591667,42.6758333 13.9675,42.5475 C12.9758333,42.4191667 12.0425,42.18 11.1675,41.83 C10.2925,41.48 9.5575,41.0016667 8.9625,40.395 C8.3675,39.7883333 8.07,38.995 8.07,38.015 C8.07,37.035 8.3675,36.2358333 8.9625,35.6175 C9.5575,34.9991667 10.2925,34.515 11.1675,34.165 C12.0425,33.815 12.9758333,33.5758333 13.9675,33.4475 C14.9591667,33.3191667 15.8633333,33.255 16.68,33.255 C17.4733333,33.255 18.3658333,33.3191667 19.3575,33.4475 C20.3491667,33.5758333 21.2825,33.815 22.1575,34.165 C23.0325,34.515 23.7733333,34.9991667 24.38,35.6175 C24.9866667,36.2358333 25.29,37.035 25.29,38.015 C25.29,38.995 24.9866667,39.7883333 24.38,40.395 C23.7733333,41.0016667 23.0325,41.48 22.1575,41.83 C21.2825,42.18 20.3491667,42.4191667 19.3575,42.5475 C18.3658333,42.6758333 17.4733333,42.74 16.68,42.74 Z M11.92,62.69 C12.06,62.69 12.1708333,62.6375 12.2525,62.5325 C12.3341667,62.4275 12.375,62.305 12.375,62.165 L12.375,62.165 L12.375,50.825 L20.81,50.825 L20.81,62.165 C20.81,62.305 20.8566667,62.4275 20.95,62.5325 C21.0433333,62.6375 21.1483333,62.69 21.265,62.69 L21.265,62.69 L22.77,62.69 C22.91,62.69 23.0208333,62.6375 23.1025,62.5325 C23.1841667,62.4275 23.225,62.305 23.225,62.165 L23.225,62.165 L23.225,50.825 L31.625,50.825 C31.7416667,50.825 31.8583333,50.7783333 31.975,50.685 C32.0916667,50.5916667 32.15,50.4866667 32.15,50.37 L32.15,50.37 L32.15,49.18 C32.15,49.04 32.0916667,48.9291667 31.975,48.8475 C31.8583333,48.7658333 31.7416667,48.725 31.625,48.725 L31.625,48.725 L1.875,48.725 C1.735,48.725 1.6125,48.7658333 1.5075,48.8475 C1.4025,48.9291667 1.35,49.04 1.35,49.18 L1.35,49.18 L1.35,50.37 C1.35,50.4866667 1.4025,50.5916667 1.5075,50.685 C1.6125,50.7783333 1.735,50.825 1.875,50.825 L1.875,50.825 L9.96,50.825 L9.96,62.165 C9.96,62.305 10.0066667,62.4275 10.1,62.5325 C10.1933333,62.6375 10.2983333,62.69 10.415,62.69 L10.415,62.69 L11.92,62.69 Z M59.66,51.245 C59.9866667,51.245 60.15,51.0816667 60.15,50.755 L60.15,50.755 L60.15,42.67 L64.98,42.67 C65.12,42.67 65.2425,42.6233333 65.3475,42.53 C65.4525,42.4366667 65.505,42.3316667 65.505,42.215 L65.505,42.215 L65.505,41.095 C65.505,40.955 65.4525,40.8441667 65.3475,40.7625 C65.2425,40.6808333 65.12,40.64 64.98,40.64 L64.98,40.64 L60.15,40.64 L60.15,31.12 C60.15,30.7933333 59.9866667,30.63 59.66,30.63 L59.66,30.63 L58.225,30.63 C57.8983333,30.63 57.735,30.7933333 57.735,31.12 L57.735,31.12 L57.735,50.755 C57.735,51.0816667 57.8983333,51.245 58.225,51.245 L58.225,51.245 L59.66,51.245 Z M49.58,33.465 C49.93,33.465 50.105,33.3016667 50.105,32.975 L50.105,32.975 L50.105,31.82 C50.105,31.4933333 49.93,31.33 49.58,31.33 L49.58,31.33 L39.955,31.33 C39.8383333,31.33 39.7333333,31.3766667 39.64,31.47 C39.5466667,31.5633333 39.5,31.68 39.5,31.82 L39.5,31.82 L39.5,33.01 C39.5,33.15 39.5525,33.2608333 39.6575,33.3425 C39.7625,33.4241667 39.8733333,33.465 39.99,33.465 L39.99,33.465 L49.58,33.465 Z M54.69,37.735 C55.04,37.735 55.215,37.5833333 55.215,37.28 L55.215,37.28 L55.215,36.09 C55.215,35.7866667 55.04,35.635 54.69,35.635 L54.69,35.635 L35.37,35.635 C35.2533333,35.635 35.1425,35.6816667 35.0375,35.775 C34.9325,35.8683333 34.88,35.985 34.88,36.125 L34.88,36.125 L34.88,37.245 C34.88,37.385 34.9325,37.5016667 35.0375,37.595 C35.1425,37.6883333 35.2533333,37.735 35.37,37.735 L35.37,37.735 L54.69,37.735 Z M44.995,50.685 C46.0683333,50.685 47.0658333,50.545 47.9875,50.265 C48.9091667,49.985 49.7025,49.5883333 50.3675,49.075 C51.0325,48.5616667 51.5575,47.9608333 51.9425,47.2725 C52.3275,46.5841667 52.52,45.82 52.52,44.98 C52.52,44.1633333 52.3275,43.405 51.9425,42.705 C51.5575,42.005 51.0325,41.4041667 50.3675,40.9025 C49.7025,40.4008333 48.9091667,40.01 47.9875,39.73 C47.0658333,39.45 46.0683333,39.31 44.995,39.31 C43.8983333,39.31 42.895,39.45 41.985,39.73 C41.075,40.01 40.2816667,40.395 39.605,40.885 C38.9283333,41.375 38.4033333,41.97 38.03,42.67 C37.6566667,43.37 37.47,44.14 37.47,44.98 C37.47,45.7966667 37.6566667,46.555 38.03,47.255 C38.4033333,47.955 38.9283333,48.5616667 39.605,49.075 C40.2816667,49.5883333 41.075,49.985 41.985,50.265 C42.895,50.545 43.8983333,50.685 44.995,50.685 Z M44.995,48.69 C44.2483333,48.69 43.56,48.6025 42.93,48.4275 C42.3,48.2525 41.7516667,48.0016667 41.285,47.675 C40.8183333,47.3483333 40.4508333,46.9575 40.1825,46.5025 C39.9141667,46.0475 39.78,45.54 39.78,44.98 C39.78,44.42 39.9141667,43.9125 40.1825,43.4575 C40.4508333,43.0025 40.8183333,42.6175 41.285,42.3025 C41.7516667,41.9875 42.3,41.7425 42.93,41.5675 C43.56,41.3925 44.2483333,41.305 44.995,41.305 C45.7416667,41.305 46.43,41.3925 47.06,41.5675 C47.69,41.7425 48.2383333,41.9875 48.705,42.3025 C49.1716667,42.6175 49.5333333,43.0025 49.79,43.4575 C50.0466667,43.9125 50.175,44.42 50.175,44.98 C50.175,45.54 50.0466667,46.0475 49.79,46.5025 C49.5333333,46.9575 49.1716667,47.3483333 48.705,47.675 C48.2383333,48.0016667 47.69,48.2525 47.06,48.4275 C46.43,48.6025 45.7416667,48.69 44.995,48.69 Z M59.66,63.04 C59.9866667,63.04 60.15,62.8766667 60.15,62.55 L60.15,62.55 L60.15,55.62 C60.15,54.6633333 59.9808333,53.9808333 59.6425,53.5725 C59.3041667,53.1641667 58.5866667,52.96 57.49,52.96 L57.49,52.96 L40.27,52.96 C40.1533333,52.96 40.0366667,52.995 39.92,53.065 C39.8033333,53.135 39.745,53.24 39.745,53.38 L39.745,53.38 L39.745,54.64 C39.745,54.7566667 39.8033333,54.8558333 39.92,54.9375 C40.0366667,55.0191667 40.1533333,55.06 40.27,55.06 L40.27,55.06 L56.93,55.06 C57.2566667,55.06 57.4725,55.1008333 57.5775,55.1825 C57.6825,55.2641667 57.735,55.4683333 57.735,55.795 L57.735,55.795 L57.735,62.55 C57.735,62.8766667 57.8983333,63.04 58.225,63.04 L58.225,63.04 L59.66,63.04 Z M103.585,50.02 C103.911667,50.02 104.075,49.8566667 104.075,49.53 L104.075,49.53 L104.075,31.12 C104.075,30.7933333 103.911667,30.63 103.585,30.63 L103.585,30.63 L102.15,30.63 C101.823333,30.63 101.66,30.7933333 101.66,31.12 L101.66,31.12 L101.66,38.75 L95.185,38.75 C94.8816667,38.75 94.73,38.89 94.73,39.17 L94.73,39.17 L94.73,40.43 C94.73,40.71 94.8816667,40.85 95.185,40.85 L95.185,40.85 L101.66,40.85 L101.66,49.53 C101.66,49.8566667 101.823333,50.02 102.15,50.02 L102.15,50.02 L103.585,50.02 Z M79.3328,48.8006 L79.4,48.795 C79.5166667,48.7716667 79.6333333,48.7366667 79.75,48.69 C81.3833333,47.9666667 82.9991667,47.0683333 84.5975,45.995 C86.1958333,44.9216667 87.66,43.7316667 88.99,42.425 C89.5266667,42.9616667 90.1041667,43.475 90.7225,43.965 C91.3408333,44.455 91.965,44.91 92.595,45.33 C93.225,45.75 93.8375,46.1233333 94.4325,46.45 C95.0275,46.7766667 95.5816667,47.0566667 96.095,47.29 C96.2116667,47.3366667 96.34,47.3541667 96.48,47.3425 C96.62,47.3308333 96.725,47.2666667 96.795,47.15 L96.795,47.15 L97.495,45.89 C97.565,45.7733333 97.5883333,45.6508333 97.565,45.5225 C97.5416667,45.3941667 97.4366667,45.295 97.25,45.225 C95.8733333,44.6416667 94.6016667,43.9708333 93.435,43.2125 C92.2683333,42.4541667 91.2883333,41.655 90.495,40.815 C91.3116667,39.905 92.0175,38.9833333 92.6125,38.05 C93.2075,37.1166667 93.6683333,36.1716667 93.995,35.215 C94.3683333,34.165 94.38,33.4241667 94.03,32.9925 C93.68,32.5608333 92.8983333,32.345 91.685,32.345 L91.685,32.345 L80.485,32.345 C80.205,32.345 80.065,32.485 80.065,32.765 L80.065,32.765 L80.065,33.99 C80.065,34.2933333 80.205,34.445 80.485,34.445 L80.485,34.445 L90.74,34.445 C91.0666667,34.445 91.2883333,34.515 91.405,34.655 C91.5216667,34.795 91.4983333,35.0283333 91.335,35.355 C90.145,37.805 88.4883333,39.9633333 86.365,41.83 C84.2416667,43.6966667 81.675,45.3533333 78.665,46.8 C78.5483333,46.8466667 78.4608333,46.9341667 78.4025,47.0625 C78.3441667,47.1908333 78.35,47.3133333 78.42,47.43 L78.42,47.43 L79.12,48.655 C79.19,48.7716667 79.2833333,48.8183333 79.4,48.795 L79.3328,48.8006 Z M94.065,63.04 C95.465,63.04 96.7775,62.8941667 98.0025,62.6025 C99.2275,62.3108333 100.300833,61.8908333 101.2225,61.3425 C102.144167,60.7941667 102.873333,60.1233333 103.41,59.33 C103.946667,58.5366667 104.215,57.6383333 104.215,56.635 C104.215,55.6316667 103.946667,54.7391667 103.41,53.9575 C102.873333,53.1758333 102.144167,52.5166667 101.2225,51.98 C100.300833,51.4433333 99.2275,51.0291667 98.0025,50.7375 C96.7775,50.4458333 95.465,50.3 94.065,50.3 C92.5483333,50.3 91.1716667,50.4458333 89.935,50.7375 C88.6983333,51.0291667 87.6366667,51.4491667 86.75,51.9975 C85.8633333,52.5458333 85.175,53.2108333 84.685,53.9925 C84.195,54.7741667 83.95,55.655 83.95,56.635 C83.95,57.6383333 84.195,58.5366667 84.685,59.33 C85.175,60.1233333 85.8633333,60.7941667 86.75,61.3425 C87.6366667,61.8908333 88.6983333,62.3108333 89.935,62.6025 C91.1716667,62.8941667 92.5483333,63.04 94.065,63.04 Z M94.03,60.94 C92.91,60.94 91.8833333,60.8466667 90.95,60.66 C90.0166667,60.4733333 89.2175,60.205 88.5525,59.855 C87.8875,59.505 87.3683333,59.0675 86.995,58.5425 C86.6216667,58.0175 86.435,57.4166667 86.435,56.74 C86.435,56.04 86.6216667,55.4216667 86.995,54.885 C87.3683333,54.3483333 87.8875,53.8991667 88.5525,53.5375 C89.2175,53.1758333 90.0166667,52.8958333 90.95,52.6975 C91.8833333,52.4991667 92.91,52.4 94.03,52.4 C95.0333333,52.4 96.0016667,52.4991667 96.935,52.6975 C97.8683333,52.8958333 98.6908333,53.1758333 99.4025,53.5375 C100.114167,53.8991667 100.68,54.3483333 101.1,54.885 C101.52,55.4216667 101.73,56.04 101.73,56.74 C101.73,57.4166667 101.52,58.0175 101.1,58.5425 C100.68,59.0675 100.114167,59.505 99.4025,59.855 C98.6908333,60.205 97.8683333,60.4733333 96.935,60.66 C96.0016667,60.8466667 95.0333333,60.94 94.03,60.94 Z M140.125,57.37 C140.241667,57.37 140.358333,57.3233333 140.475,57.23 C140.591667,57.1366667 140.65,57.0316667 140.65,56.915 L140.65,56.915 L140.65,55.725 C140.65,55.585 140.591667,55.4741667 140.475,55.3925 C140.358333,55.3108333 140.241667,55.27 140.125,55.27 L140.125,55.27 L126.37,55.27 L126.37,48.06 L133.3,48.06 C134.326667,48.06 135.026667,47.9083333 135.4,47.605 C135.773333,47.3016667 135.96,46.7066667 135.96,45.82 L135.96,45.82 L135.96,32.45 C135.96,32.3333333 135.913333,32.2341667 135.82,32.1525 C135.726667,32.0708333 135.621667,32.03 135.505,32.03 L135.505,32.03 L134,32.03 C133.883333,32.03 133.784167,32.0766667 133.7025,32.17 C133.620833,32.2633333 133.58,32.3683333 133.58,32.485 L133.58,32.485 L133.58,38.015 L116.745,38.015 L116.745,32.45 C116.745,32.3566667 116.704167,32.2633333 116.6225,32.17 C116.540833,32.0766667 116.441667,32.03 116.325,32.03 L116.325,32.03 L114.82,32.03 C114.703333,32.03 114.598333,32.0708333 114.505,32.1525 C114.411667,32.2341667 114.365,32.3333333 114.365,32.45 L114.365,32.45 L114.365,45.575 C114.365,46.065 114.4,46.4675 114.47,46.7825 C114.54,47.0975 114.668333,47.3541667 114.855,47.5525 C115.041667,47.7508333 115.304167,47.885 115.6425,47.955 C115.980833,48.025 116.43,48.06 116.99,48.06 L116.99,48.06 L123.955,48.06 L123.955,55.27 L110.375,55.27 C110.235,55.27 110.1125,55.3108333 110.0075,55.3925 C109.9025,55.4741667 109.85,55.585 109.85,55.725 L109.85,55.725 L109.85,56.915 C109.85,57.0316667 109.9025,57.1366667 110.0075,57.23 C110.1125,57.3233333 110.235,57.37 110.375,57.37 L110.375,57.37 L140.125,57.37 Z M132.74,45.995 L117.585,45.995 C117.258333,45.995 117.036667,45.9425 116.92,45.8375 C116.803333,45.7325 116.745,45.505 116.745,45.155 L116.745,45.155 L116.745,40.08 L133.58,40.08 L133.58,45.155 C133.58,45.505 133.521667,45.7325 133.405,45.8375 C133.288333,45.9425 133.066667,45.995 132.74,45.995 L132.74,45.995 Z M155.6125,42.9675 C155.694167,43.0491667 155.84,43.0666667 156.05,43.02 C158.243333,42.6466667 160.395833,42.1625 162.5075,41.5675 C164.619167,40.9725 166.596667,40.29 168.44,39.52 C169.28,39.8 170.195833,40.08 171.1875,40.36 C172.179167,40.64 173.1825,40.9141667 174.1975,41.1825 C175.2125,41.4508333 176.21,41.7016667 177.19,41.935 C178.17,42.1683333 179.056667,42.355 179.85,42.495 C180.153333,42.565 180.363333,42.4716667 180.48,42.215 L180.48,42.215 L180.97,41.06 C181.063333,40.8033333 180.958333,40.64 180.655,40.57 C179.931667,40.43 179.15,40.2666667 178.31,40.08 C177.47,39.8933333 176.63,39.695 175.79,39.485 C174.95,39.275 174.1275,39.065 173.3225,38.855 C172.5175,38.645 171.788333,38.4466667 171.135,38.26 C173.211667,37.1866667 174.856667,36.0783333 176.07,34.935 C177.213333,33.8383333 177.621667,32.9808333 177.295,32.3625 C176.968333,31.7441667 175.906667,31.435 174.11,31.435 L174.11,31.435 L158.115,31.435 C157.811667,31.435 157.66,31.575 157.66,31.855 L157.66,31.855 L157.66,33.08 C157.66,33.3833333 157.811667,33.535 158.115,33.535 L158.115,33.535 L173.235,33.535 C173.561667,33.535 173.765833,33.6166667 173.8475,33.78 C173.929167,33.9433333 173.783333,34.165 173.41,34.445 C172.593333,35.0516667 171.496667,35.6875 170.12,36.3525 C168.743333,37.0175 167.2325,37.6533333 165.5875,38.26 C163.9425,38.8666667 162.233333,39.415 160.46,39.905 C158.686667,40.395 156.995,40.7683333 155.385,41.025 C155.105,41.0483333 155.011667,41.235 155.105,41.585 L155.105,41.585 L155.42,42.635 C155.466667,42.775 155.530833,42.8858333 155.6125,42.9675 Z M182.825,49.215 C182.941667,49.215 183.058333,49.1683333 183.175,49.075 C183.291667,48.9816667 183.35,48.8766667 183.35,48.76 L183.35,48.76 L183.35,47.57 C183.35,47.43 183.291667,47.3191667 183.175,47.2375 C183.058333,47.1558333 182.941667,47.115 182.825,47.115 L182.825,47.115 L169.105,47.115 L169.105,42.425 C169.105,42.285 169.058333,42.1625 168.965,42.0575 C168.871667,41.9525 168.766667,41.9 168.65,41.9 L168.65,41.9 L167.145,41.9 C167.005,41.9 166.894167,41.9525 166.8125,42.0575 C166.730833,42.1625 166.69,42.285 166.69,42.425 L166.69,42.425 L166.69,47.115 L153.075,47.115 C152.935,47.115 152.8125,47.1558333 152.7075,47.2375 C152.6025,47.3191667 152.55,47.43 152.55,47.57 L152.55,47.57 L152.55,48.76 C152.55,48.8766667 152.6025,48.9816667 152.7075,49.075 C152.8125,49.1683333 152.935,49.215 153.075,49.215 L153.075,49.215 L182.825,49.215 Z M167.88,63.145 C168.93,63.145 170.090833,63.0691667 171.3625,62.9175 C172.634167,62.7658333 173.818333,62.48 174.915,62.06 C176.011667,61.64 176.933333,61.0566667 177.68,60.31 C178.426667,59.5633333 178.8,58.595 178.8,57.405 C178.8,56.2383333 178.4325,55.2816667 177.6975,54.535 C176.9625,53.7883333 176.040833,53.205 174.9325,52.785 C173.824167,52.365 172.634167,52.0791667 171.3625,51.9275 C170.090833,51.7758333 168.93,51.7 167.88,51.7 C166.853333,51.7 165.704167,51.7816667 164.4325,51.945 C163.160833,52.1083333 161.976667,52.4 160.88,52.82 C159.783333,53.24 158.861667,53.8175 158.115,54.5525 C157.368333,55.2875 156.995,56.2383333 156.995,57.405 C156.995,58.1983333 157.17,58.8866667 157.52,59.47 C157.87,60.0533333 158.330833,60.5608333 158.9025,60.9925 C159.474167,61.4241667 160.133333,61.78 160.88,62.06 C161.626667,62.34 162.4025,62.5558333 163.2075,62.7075 C164.0125,62.8591667 164.8175,62.97 165.6225,63.04 C166.4275,63.11 167.18,63.145 167.88,63.145 Z M167.88,60.94 C167.203333,60.94 166.3925,60.8991667 165.4475,60.8175 C164.5025,60.7358333 163.5925,60.5725 162.7175,60.3275 C161.8425,60.0825 161.095833,59.7266667 160.4775,59.26 C159.859167,58.7933333 159.55,58.1866667 159.55,57.44 C159.55,56.67 159.859167,56.0575 160.4775,55.6025 C161.095833,55.1475 161.8425,54.7916667 162.7175,54.535 C163.5925,54.2783333 164.5025,54.1091667 165.4475,54.0275 C166.3925,53.9458333 167.203333,53.905 167.88,53.905 C168.533333,53.905 169.3325,53.9458333 170.2775,54.0275 C171.2225,54.1091667 172.138333,54.2783333 173.025,54.535 C173.911667,54.7916667 174.67,55.1475 175.3,55.6025 C175.93,56.0575 176.245,56.67 176.245,57.44 C176.245,58.1866667 175.93,58.7933333 175.3,59.26 C174.67,59.7266667 173.9175,60.0825 173.0425,60.3275 C172.1675,60.5725 171.251667,60.7358333 170.295,60.8175 C169.338333,60.8991667 168.533333,60.94 167.88,60.94 Z M210.86,48.865 C211.186667,48.865 211.35,48.7016667 211.35,48.375 L211.35,48.375 L211.35,41.305 L216.18,41.305 C216.32,41.305 216.4425,41.2583333 216.5475,41.165 C216.6525,41.0716667 216.705,40.9666667 216.705,40.85 L216.705,40.85 L216.705,39.66 C216.705,39.52 216.6525,39.4091667 216.5475,39.3275 C216.4425,39.2458333 216.32,39.205 216.18,39.205 L216.18,39.205 L211.35,39.205 L211.35,31.12 C211.35,30.7933333 211.186667,30.63 210.86,30.63 L210.86,30.63 L209.425,30.63 C209.098333,30.63 208.935,30.7933333 208.935,31.12 L208.935,31.12 L208.935,48.375 C208.935,48.7016667 209.098333,48.865 209.425,48.865 L209.425,48.865 L210.86,48.865 Z M200.78,33.045 C201.13,33.045 201.305,32.8816667 201.305,32.555 L201.305,32.555 L201.305,31.4 C201.305,31.0733333 201.13,30.91 200.78,30.91 L200.78,30.91 L191.155,30.91 C191.038333,30.91 190.933333,30.9566667 190.84,31.05 C190.746667,31.1433333 190.7,31.26 190.7,31.4 L190.7,31.4 L190.7,32.59 C190.7,32.73 190.7525,32.8408333 190.8575,32.9225 C190.9625,33.0041667 191.073333,33.045 191.19,33.045 L191.19,33.045 L200.78,33.045 Z M205.89,37.035 C206.24,37.035 206.415,36.8833333 206.415,36.58 L206.415,36.58 L206.415,35.39 C206.415,35.0866667 206.24,34.935 205.89,34.935 L205.89,34.935 L186.57,34.935 C186.453333,34.935 186.3425,34.9816667 186.2375,35.075 C186.1325,35.1683333 186.08,35.285 186.08,35.425 L186.08,35.425 L186.08,36.545 C186.08,36.685 186.1325,36.8016667 186.2375,36.895 C186.3425,36.9883333 186.453333,37.035 186.57,37.035 L186.57,37.035 L205.89,37.035 Z M196.195,49.425 C197.268333,49.425 198.265833,49.2908333 199.1875,49.0225 C200.109167,48.7541667 200.9025,48.375 201.5675,47.885 C202.2325,47.395 202.7575,46.8116667 203.1425,46.135 C203.5275,45.4583333 203.72,44.7233333 203.72,43.93 C203.72,43.1366667 203.5275,42.4075 203.1425,41.7425 C202.7575,41.0775 202.2325,40.5 201.5675,40.01 C200.9025,39.52 200.109167,39.1408333 199.1875,38.8725 C198.265833,38.6041667 197.268333,38.47 196.195,38.47 C195.098333,38.47 194.095,38.6041667 193.185,38.8725 C192.275,39.1408333 191.481667,39.5141667 190.805,39.9925 C190.128333,40.4708333 189.603333,41.0483333 189.23,41.725 C188.856667,42.4016667 188.67,43.1366667 188.67,43.93 C188.67,44.7233333 188.856667,45.4583333 189.23,46.135 C189.603333,46.8116667 190.128333,47.395 190.805,47.885 C191.481667,48.375 192.275,48.7541667 193.185,49.0225 C194.095,49.2908333 195.098333,49.425 196.195,49.425 Z M196.195,47.395 C195.448333,47.395 194.76,47.3133333 194.13,47.15 C193.5,46.9866667 192.951667,46.7591667 192.485,46.4675 C192.018333,46.1758333 191.650833,45.8141667 191.3825,45.3825 C191.114167,44.9508333 190.98,44.4666667 190.98,43.93 C190.98,43.37 191.114167,42.88 191.3825,42.46 C191.650833,42.04 192.018333,41.6841667 192.485,41.3925 C192.951667,41.1008333 193.5,40.8791667 194.13,40.7275 C194.76,40.5758333 195.448333,40.5 196.195,40.5 C197.688333,40.5 198.925,40.7975 199.905,41.3925 C200.885,41.9875 201.375,42.8333333 201.375,43.93 C201.375,45.0033333 200.885,45.8491667 199.905,46.4675 C198.925,47.0858333 197.688333,47.395 196.195,47.395 Z M208.69,62.62 C209.716667,62.62 210.416667,62.4683333 210.79,62.165 C211.163333,61.8616667 211.35,61.2666667 211.35,60.38 L211.35,60.38 L211.35,51.175 C211.35,51.0583333 211.303333,50.9591667 211.21,50.8775 C211.116667,50.7958333 211.011667,50.755 210.895,50.755 L210.895,50.755 L209.355,50.755 C209.238333,50.755 209.139167,50.8016667 209.0575,50.895 C208.975833,50.9883333 208.935,51.0933333 208.935,51.21 L208.935,51.21 L208.935,54.36 L193.78,54.36 L193.78,51.14 C193.78,51.0466667 193.739167,50.9591667 193.6575,50.8775 C193.575833,50.7958333 193.476667,50.755 193.36,50.755 L193.36,50.755 L191.82,50.755 C191.703333,50.755 191.598333,50.79 191.505,50.86 C191.411667,50.93 191.365,51.0233333 191.365,51.14 L191.365,51.14 L191.365,60.135 C191.365,60.625 191.4,61.0275 191.47,61.3425 C191.54,61.6575 191.668333,61.9141667 191.855,62.1125 C192.041667,62.3108333 192.304167,62.445 192.6425,62.515 C192.980833,62.585 193.43,62.62 193.99,62.62 L193.99,62.62 L208.69,62.62 Z M208.095,60.52 L194.62,60.52 C194.293333,60.52 194.071667,60.4675 193.955,60.3625 C193.838333,60.2575 193.78,60.03 193.78,59.68 L193.78,59.68 L193.78,56.46 L208.935,56.46 L208.935,59.68 C208.935,60.03 208.876667,60.2575 208.76,60.3625 C208.643333,60.4675 208.421667,60.52 208.095,60.52 L208.095,60.52 Z M254.785,62.9 C255.111667,62.9 255.275,62.7366667 255.275,62.41 L255.275,62.41 L255.275,31.12 C255.275,30.7933333 255.111667,30.63 254.785,30.63 L254.785,30.63 L253.35,30.63 C253.023333,30.63 252.86,30.7933333 252.86,31.12 L252.86,31.12 L252.86,43.23 L245.02,43.23 C244.716667,43.23 244.565,43.37 244.565,43.65 L244.565,43.65 L244.565,44.91 C244.565,45.19 244.716667,45.33 245.02,45.33 L245.02,45.33 L252.86,45.33 L252.86,62.41 C252.86,62.7366667 253.023333,62.9 253.35,62.9 L253.35,62.9 L254.785,62.9 Z M230.32,55.655 C230.46,55.8883333 230.681667,55.9233333 230.985,55.76 C233.131667,54.6166667 235.050833,53.31 236.7425,51.84 C238.434167,50.37 239.880833,48.7775 241.0825,47.0625 C242.284167,45.3475 243.223333,43.5391667 243.9,41.6375 C244.576667,39.7358333 244.973333,37.7816667 245.09,35.775 C245.136667,34.9116667 244.985,34.2758333 244.635,33.8675 C244.285,33.4591667 243.561667,33.255 242.465,33.255 L242.465,33.255 L231.125,33.255 C230.845,33.255 230.705,33.395 230.705,33.675 L230.705,33.675 L230.705,34.9 C230.705,35.2033333 230.845,35.355 231.125,35.355 L231.125,35.355 L241.8,35.355 C242.126667,35.355 242.36,35.4191667 242.5,35.5475 C242.64,35.6758333 242.686667,35.915 242.64,36.265 C242.453333,38.0616667 242.068333,39.7766667 241.485,41.41 C241.275,41.4566667 241.024167,41.4916667 240.7325,41.515 C240.440833,41.5383333 240.155,41.5558333 239.875,41.5675 C239.595,41.5791667 239.3325,41.5966667 239.0875,41.62 C238.8425,41.6433333 238.65,41.655 238.51,41.655 C238.09,41.6783333 237.570833,41.7016667 236.9525,41.725 C236.334167,41.7483333 235.669167,41.7716667 234.9575,41.795 C234.245833,41.8183333 233.516667,41.8416667 232.77,41.865 C232.023333,41.8883333 231.3,41.9 230.6,41.9 C230.296667,41.9 230.145,42.04 230.145,42.32 L230.145,42.32 L230.145,43.51 C230.145,43.79 230.296667,43.93 230.6,43.93 C231.23,43.93 231.900833,43.9183333 232.6125,43.895 C233.324167,43.8716667 234.035833,43.8483333 234.7475,43.825 C235.459167,43.8016667 236.159167,43.7783333 236.8475,43.755 C237.535833,43.7316667 238.16,43.7083333 238.72,43.685 C238.93,43.685 239.198333,43.6791667 239.525,43.6675 C239.851667,43.6558333 240.178333,43.6266667 240.505,43.58 C239.455,45.6333333 238.025833,47.5233333 236.2175,49.25 C234.409167,50.9766667 232.233333,52.505 229.69,53.835 C229.433333,53.9516667 229.386667,54.15 229.55,54.43 L229.55,54.43 L230.32,55.655 Z M284.675,44.56 C285.701667,44.56 286.401667,44.3908333 286.775,44.0525 C287.148333,43.7141667 287.335,43.055 287.335,42.075 L287.335,42.075 L287.335,33.815 C287.335,33.325 287.3,32.9166667 287.23,32.59 C287.16,32.2633333 287.025833,32.0066667 286.8275,31.82 C286.629167,31.6333333 286.360833,31.505 286.0225,31.435 C285.684167,31.365 285.235,31.33 284.675,31.33 L284.675,31.33 L268.05,31.33 C267.023333,31.33 266.323333,31.4991667 265.95,31.8375 C265.576667,32.1758333 265.39,32.835 265.39,33.815 L265.39,33.815 L265.39,42.075 C265.39,42.565 265.425,42.9675 265.495,43.2825 C265.565,43.5975 265.699167,43.8541667 265.8975,44.0525 C266.095833,44.2508333 266.364167,44.385 266.7025,44.455 C267.040833,44.525 267.49,44.56 268.05,44.56 L268.05,44.56 L284.675,44.56 Z M284.08,42.46 L268.645,42.46 C268.318333,42.46 268.096667,42.3958333 267.98,42.2675 C267.863333,42.1391667 267.805,41.9 267.805,41.55 L267.805,41.55 L267.805,34.34 C267.805,33.99 267.863333,33.7508333 267.98,33.6225 C268.096667,33.4941667 268.318333,33.43 268.645,33.43 L268.645,33.43 L284.08,33.43 C284.406667,33.43 284.628333,33.4941667 284.745,33.6225 C284.861667,33.7508333 284.92,33.99 284.92,34.34 L284.92,34.34 L284.92,41.55 C284.92,41.9 284.861667,42.1391667 284.745,42.2675 C284.628333,42.3958333 284.406667,42.46 284.08,42.46 L284.08,42.46 Z M271.62,62.69 C271.76,62.69 271.870833,62.6375 271.9525,62.5325 C272.034167,62.4275 272.075,62.305 272.075,62.165 L272.075,62.165 L272.075,51.07 L280.51,51.07 L280.51,62.165 C280.51,62.305 280.556667,62.4275 280.65,62.5325 C280.743333,62.6375 280.848333,62.69 280.965,62.69 L280.965,62.69 L282.47,62.69 C282.61,62.69 282.720833,62.6375 282.8025,62.5325 C282.884167,62.4275 282.925,62.305 282.925,62.165 L282.925,62.165 L282.925,51.07 L291.325,51.07 C291.441667,51.07 291.558333,51.0233333 291.675,50.93 C291.791667,50.8366667 291.85,50.7316667 291.85,50.615 L291.85,50.615 L291.85,49.425 C291.85,49.285 291.791667,49.1741667 291.675,49.0925 C291.558333,49.0108333 291.441667,48.97 291.325,48.97 L291.325,48.97 L261.575,48.97 C261.435,48.97 261.3125,49.0108333 261.2075,49.0925 C261.1025,49.1741667 261.05,49.285 261.05,49.425 L261.05,49.425 L261.05,50.615 C261.05,50.7316667 261.1025,50.8366667 261.2075,50.93 C261.3125,51.0233333 261.435,51.07 261.575,51.07 L261.575,51.07 L269.66,51.07 L269.66,62.165 C269.66,62.305 269.706667,62.4275 269.8,62.5325 C269.893333,62.6375 269.998333,62.69 270.115,62.69 L270.115,62.69 L271.62,62.69 Z M320.585,62.9 C320.911667,62.9 321.075,62.7366667 321.075,62.41 L321.075,62.41 L321.075,31.12 C321.075,30.7933333 320.911667,30.63 320.585,30.63 L320.585,30.63 L319.15,30.63 C318.823333,30.63 318.66,30.7933333 318.66,31.12 L318.66,31.12 L318.66,62.41 C318.66,62.7366667 318.823333,62.9 319.15,62.9 L319.15,62.9 L320.585,62.9 Z M300.18,53.205 C301.486667,53.2283333 302.898333,53.2108333 304.415,53.1525 C305.931667,53.0941667 307.413333,53.0008333 308.86,52.8725 C310.306667,52.7441667 311.654167,52.5983333 312.9025,52.435 C314.150833,52.2716667 315.171667,52.0966667 315.965,51.91 C316.338333,51.8166667 316.49,51.6066667 316.42,51.28 L316.42,51.28 L316.245,50.3 C316.175,49.9266667 315.941667,49.7866667 315.545,49.88 C314.471667,50.09 313.310833,50.2766667 312.0625,50.44 C310.814167,50.6033333 309.536667,50.7375 308.23,50.8425 C306.923333,50.9475 305.6225,51.0175 304.3275,51.0525 C303.0325,51.0875 301.813333,51.0816667 300.67,51.035 C300.343333,51.0116667 300.121667,50.9416667 300.005,50.825 C299.888333,50.7083333 299.83,50.475 299.83,50.125 L299.83,50.125 L299.83,33.08 C299.83,32.7533333 299.666667,32.59 299.34,32.59 L299.34,32.59 L297.905,32.59 C297.578333,32.59 297.415,32.7533333 297.415,33.08 L297.415,33.08 L297.415,50.3 C297.415,51.28 297.613333,52.0033333 298.01,52.47 C298.406667,52.9366667 299.13,53.1816667 300.18,53.205 Z M353.485,62.9 C353.811667,62.9 353.975,62.7366667 353.975,62.41 L353.975,62.41 L353.975,31.12 C353.975,30.7933333 353.811667,30.63 353.485,30.63 L353.485,30.63 L352.05,30.63 C351.723333,30.63 351.56,30.7933333 351.56,31.12 L351.56,31.12 L351.56,62.41 C351.56,62.7366667 351.723333,62.9 352.05,62.9 L352.05,62.9 L353.485,62.9 Z M332.415,54.36 C333.465,54.3833333 334.643333,54.3716667 335.95,54.325 C337.256667,54.2783333 338.586667,54.2025 339.94,54.0975 C341.293333,53.9925 342.605833,53.8641667 343.8775,53.7125 C345.149167,53.5608333 346.275,53.38 347.255,53.17 C347.465,53.1233333 347.605,53.0591667 347.675,52.9775 C347.745,52.8958333 347.756667,52.75 347.71,52.54 L347.71,52.54 L347.535,51.525 C347.465,51.1983333 347.231667,51.07 346.835,51.14 C345.831667,51.3266667 344.723333,51.4958333 343.51,51.6475 C342.296667,51.7991667 341.071667,51.9158333 339.835,51.9975 C338.598333,52.0791667 337.385,52.1375 336.195,52.1725 C335.005,52.2075 333.92,52.2133333 332.94,52.19 C332.613333,52.19 332.391667,52.1258333 332.275,51.9975 C332.158333,51.8691667 332.1,51.63 332.1,51.28 L332.1,51.28 L332.1,44.735 L333.71,44.735 C334.363333,44.7583333 335.133333,44.7641667 336.02,44.7525 C336.906667,44.7408333 337.816667,44.7291667 338.75,44.7175 C339.683333,44.7058333 340.593333,44.6825 341.48,44.6475 C342.366667,44.6125 343.125,44.5716667 343.755,44.525 C344.058333,44.4783333 344.21,44.3383333 344.21,44.105 L344.21,44.105 L344.21,42.915 C344.21,42.7983333 344.169167,42.6933333 344.0875,42.6 C344.005833,42.5066667 343.895,42.4716667 343.755,42.495 C343.125,42.5416667 342.3725,42.5825 341.4975,42.6175 C340.6225,42.6525 339.718333,42.6758333 338.785,42.6875 C337.851667,42.6991667 336.941667,42.705 336.055,42.705 L336.055,42.705 L332.1,42.705 L332.1,36.125 C332.1,35.775 332.135,35.5591667 332.205,35.4775 C332.275,35.3958333 332.473333,35.355 332.8,35.355 L332.8,35.355 L344.385,35.355 C344.688333,35.355 344.84,35.215 344.84,34.935 L344.84,34.935 L344.84,33.675 C344.84,33.395 344.688333,33.255 344.385,33.255 L344.385,33.255 L332.345,33.255 C331.318333,33.255 330.618333,33.4183333 330.245,33.745 C329.871667,34.0716667 329.685,34.725 329.685,35.705 L329.685,35.705 L329.685,51.455 C329.685,52.435 329.8775,53.1583333 330.2625,53.625 C330.6475,54.0916667 331.365,54.3366667 332.415,54.36 Z" id="유학정보종합커뮤니티" fill="#000000" fill-rule="nonzero"></path>
    </g>
</svg>