<?xml version="1.0" encoding="UTF-8"?>
<svg width="100px" height="100px" viewBox="0 0 100 100" version="1.1" xmlns="http://www.w3.org/2000/svg" xmlns:xlink="http://www.w3.org/1999/xlink">
    <title>band</title>
    <g id="band" stroke="none" stroke-width="1" fill="none" fill-rule="evenodd">
        <path d="M43.3888889,57.7777778 C43.3888889,54.0190114 46.4357215,50.9722222 50.1945414,50.9722222 C53.9531674,50.9722222 57,54.0190114 57,57.7777778 C57,61.5363503 53.9531674,64.5833333 50.1945414,64.5833333 C46.4357215,64.5833333 43.3888889,61.5363503 43.3888889,57.7777778 Z M49.2223183,81.1111111 C36.3355493,81.1111111 25.8888889,70.6592212 25.8888889,57.7661936 C25.8888889,57.7079706 25.8917698,57.6505162 25.8923459,57.5924854 L25.8923459,42.718147 C25.8911936,42.7196842 25.8900412,42.7214136 25.8888889,42.7229508 L25.8888889,34.6205408 C25.8900412,34.6215016 25.8911936,34.6220781 25.8923459,34.6228467 L25.8923459,26.2045338 L25.8959951,26.2045338 C25.8942665,26.1447735 25.8888889,26.0855898 25.8888889,26.0254453 C25.8888889,22.6210342 28.6474311,19.8611111 32.0501388,19.8611111 C35.4526545,19.8611111 38.2111967,22.6210342 38.2111967,26.0254453 C38.2111967,26.2475765 38.1952558,26.4656725 38.1722087,26.6818469 L38.2111967,26.6818469 L38.2111967,57.7661936 C38.2111967,63.9230337 43.2177884,68.9321316 49.371548,68.9321316 C55.5253076,68.9321316 60.5317073,63.9230337 60.5317073,57.7661936 C60.5317073,51.6091613 55.5253076,46.6002555 49.371548,46.6002555 C46.8396354,46.6002555 44.5030466,47.4493887 42.6285517,48.8763321 L42.6285517,44.3149555 C44.6228914,43.3316981 46.8665236,42.7771386 49.2401797,42.7771386 C57.5142697,42.7771386 64.2217352,49.4879617 64.2217352,57.7661936 C64.2217352,66.0444255 57.5142697,72.7552486 49.2401797,72.7552486 C40.9660897,72.7552486 34.2588163,66.0444255 34.2588163,57.7661936 C34.2588163,57.7006687 34.2626575,57.6362968 34.2634257,57.570964 L34.2588163,57.570964 L34.2588163,26.0254453 C34.2588163,24.8048763 33.269905,23.8156621 32.0501388,23.8156621 C30.8301806,23.8156621 29.8414613,24.8048763 29.8414613,26.0254453 L29.8414613,57.7661936 C29.8414613,68.4680772 38.5436506,77.1748148 49.2401797,77.1748148 C59.9369009,77.1748148 68.6390902,68.4680772 68.6390902,57.7661936 C68.6390902,47.0641178 59.9369009,38.3575723 49.2401797,38.3575723 C46.9195319,38.3575723 44.6929929,38.7678234 42.6285517,39.5189575 L42.6285517,35.3682161 C44.719497,34.7527435 46.9320157,34.421276 49.2223183,34.421276 C62.1087031,34.421276 72.5555556,44.8729737 72.5555556,57.7661936 C72.5555556,70.6592212 62.1087031,81.1111111 49.2223183,81.1111111 Z M69.3011389,37.6633091 C64.067659,32.4258745 57.1094377,29.5416487 49.7084292,29.5416487 C47.4607425,29.5416487 45.254669,29.8091722 43.1247265,30.3263715 L43.1247265,25.5704408 C43.1247265,19.7419212 38.3863858,15 32.5624591,15 C26.7383406,15 22,19.7419212 22,25.5704408 L22,57.2708244 C22,64.6776175 24.8822397,71.6409049 30.1155278,76.8783396 C35.3490077,82.1155823 42.3070372,85 49.7084292,85 C57.1094377,85 64.067659,82.1155823 69.3011389,76.8783396 C74.534427,71.6409049 77.4166667,64.6776175 77.4166667,57.2708244 C77.4166667,49.8640313 74.534427,42.9005519 69.3011389,37.6633091 L69.3011389,37.6633091 Z" id="Fill-4" fill="#FFFFFE"></path>
    </g>
</svg>