<?xml version="1.0" encoding="UTF-8"?>
<svg width="100px" height="100px" viewBox="0 0 100 100" version="1.1" xmlns="http://www.w3.org/2000/svg" xmlns:xlink="http://www.w3.org/1999/xlink">
    <title>google</title>
    <g id="google" stroke="none" stroke-width="1" fill="none" fill-rule="evenodd">
        <path d="M57.5264811,46.7414063 C57.7354329,47.845638 57.8845703,48.9498698 57.8845703,50.3822266 C57.8845703,62.8866374 49.498584,71.75 36.875,71.75 C24.7886068,71.75 15,61.9615072 15,49.875 C15,37.7884928 24.7886068,28 36.875,28 C42.7839844,28 47.7080241,30.1486491 51.527946,33.7298828 L45.5891113,39.4299154 C43.9775391,37.8780436 41.1425618,36.0576335 36.875,36.0576335 C29.4142578,36.0576335 23.3261719,42.2351563 23.3261719,49.875 C23.3261719,57.5148437 29.4142578,63.6923665 36.875,63.6923665 C45.5294108,63.6923665 48.7824056,57.4551432 49.2896322,54.261849 L36.875,54.261849 L36.875,46.7412923 L57.5264811,46.7412923 L57.5264811,46.7414063 Z M78.6502116,47.4747884 L78.6502116,41.125 L72.2698893,41.125 L72.2698893,47.4747884 L65.9201009,47.4747884 L65.9201009,53.8551107 L72.2698893,53.8551107 L72.2698893,60.2048991 L78.6502116,60.2048991 L78.6502116,53.8551107 L85,53.8551107 L85,47.4747884 L78.6502116,47.4747884 L78.6502116,47.4747884 Z" id="Shape" fill="#FFFFFF" fill-rule="nonzero"></path>
    </g>
</svg>