<?xml version="1.0" encoding="UTF-8"?>
<svg width="100px" height="100px" viewBox="0 0 100 100" version="1.1" xmlns="http://www.w3.org/2000/svg" xmlns:xlink="http://www.w3.org/1999/xlink">
    <title>kakaostory</title>
    <g id="kakaostory" stroke="none" stroke-width="1" fill="none" fill-rule="evenodd">
        <path d="M62.9320023,20 L37.132512,20 C35.4008731,20 34,21.394389 34,23.0985968 L34,48.5654015 C34,50.2890105 35.4008731,51.6640255 37.132512,51.6640255 L49.0205117,51.6640255 C48.9426892,54.685181 47.6585474,57.9774623 45.8296253,60.9017823 C43.74777,64.1940703 39.3311161,67.8543123 39.2921999,67.8736793 C38.9419835,68.202906 38.6890477,68.590234 38.6890477,69.1131248 C38.6890477,69.5198198 38.9030672,69.8296795 39.1365448,70.158913 L47.4250698,79.435404 C47.4250698,79.435404 47.8336581,79.8614663 48.1644238,79.9389278 C48.5340984,80.035763 48.9621473,80.035763 49.2539893,79.803365 C63.612977,68.8226323 65.6948323,55.033775 66.0454545,47.5777213 L66.0454545,23.0985968 C66.0645143,21.394389 64.6636337,20 62.9320023,20" id="Fill-2" fill="#FFFFFF" fill-rule="nonzero"></path>
    </g>
</svg>