<?xml version="1.0" encoding="UTF-8"?>
<svg width="100px" height="100px" viewBox="0 0 100 100" version="1.1" xmlns="http://www.w3.org/2000/svg" xmlns:xlink="http://www.w3.org/1999/xlink">
    <title>twitter</title>
    <g id="twitter" stroke="none" stroke-width="1" fill="none" fill-rule="evenodd">
        <path d="M77.8047375,36.1687663 C77.8491713,36.7905656 77.8491713,37.4125016 77.8491713,38.0343009 C77.8491713,57 63.4139391,78.8529369 37.0305353,78.8529369 C28.9023004,78.8529369 21.3515678,76.4987676 15,72.4126383 C16.1548678,72.5458029 17.2651651,72.5902367 18.4644667,72.5902367 C25.1712311,72.5902367 31.3452006,70.3250716 36.2754347,66.4608377 C29.9683007,66.3275364 24.6827331,62.1968367 22.8616323,56.511502 C23.7500342,56.6446666 24.6382994,56.7335341 25.571135,56.7335341 C26.8591674,56.7335341 28.1473365,56.555799 29.3465014,56.2450361 C22.7729015,54.9124333 17.8425306,49.1383677 17.8425306,42.1650006 L17.8425306,41.9874023 C19.7523623,43.0534026 21.9733671,43.7196356 24.327263,43.8083664 C20.4630292,41.232165 17.9313982,36.8349994 17.9313982,31.8603315 C17.9313982,29.1953992 18.6419283,26.752499 19.8856636,24.6204985 C26.9478982,33.3260989 37.563467,39.0112969 49.4669315,39.6332329 C49.2448994,38.5672327 49.1115981,37.4569354 49.1115981,36.3465014 C49.1115981,28.4402986 55.5075996,22 63.4580994,22 C67.5887992,22 71.3197317,23.7322333 73.940367,26.5304669 C77.1826648,25.9086676 80.291798,24.7093661 83.0457346,23.0660003 C81.9795976,26.3973023 79.7144325,29.1955359 76.7386005,30.9720663 C79.6257017,30.6613034 82.4239352,29.8616323 85,28.751335 C83.046008,31.5938656 80.6029711,34.1254966 77.8047375,36.1687663 Z" id="Path" fill="#FFFFFF" fill-rule="nonzero"></path>
    </g>
</svg>